<svg id="Capa_1" enable-background="new 0 0 512 512" height="512" viewBox="0 0 512 512" width="512" xmlns="http://www.w3.org/2000/svg" xmlns:xlink="http://www.w3.org/1999/xlink"><linearGradient id="SVGID_1_" gradientUnits="userSpaceOnUse" x1="256" x2="256" y1="437" y2="75"><stop offset="0" stop-color="#ffe59a"/><stop offset="1" stop-color="#ffffd5"/></linearGradient><linearGradient id="SVGID_2_" gradientUnits="userSpaceOnUse" x1="256" x2="256" y1="512" y2="0"><stop offset="0" stop-color="#fd5900"/><stop offset="1" stop-color="#ffde00"/></linearGradient><g><g><g><path d="m377 75h-242c-8.291 0-15 6.709-15 15v60c0 8.291 6.709 15 15 15h242c8.291 0 15-6.709 15-15v-60c0-8.291-6.709-15-15-15zm0 272h-242c-8.291 0-15 6.709-15 15v60c0 8.291 6.709 15 15 15h242c8.291 0 15-6.709 15-15v-60c0-8.291-6.709-15-15-15z" fill="url(#SVGID_1_)"/></g></g><g><g><path d="m115.605 4.395c-2.812-2.813-6.621-4.395-10.605-4.395h-60c-3.984 0-7.793 1.582-10.605 4.395l-30 30c-2.813 2.812-4.395 6.621-4.395 10.605v150c0 3.984 1.582 7.793 4.395 10.605l30 30c2.812 2.813 6.621 4.395 10.605 4.395h60c3.984 0 7.793-1.582 10.605-4.395l30-30c2.813-2.812 4.395-6.621 4.395-10.605v-150c0-3.984-1.582-7.793-4.395-10.605zm392 30-30-30c-2.812-2.813-6.621-4.395-10.605-4.395h-60c-3.984 0-7.793 1.582-10.605 4.395l-30 30c-2.813 2.812-4.395 6.621-4.395 10.605v150c0 3.984 1.582 7.793 4.395 10.605l30 30c2.812 2.813 6.621 4.395 10.605 4.395h60c3.984 0 7.793-1.582 10.605-4.395l30-30c2.813-2.812 4.395-6.621 4.395-10.605v-150c0-3.984-1.582-7.793-4.395-10.605zm-392 242c-2.812-2.813-6.621-4.395-10.605-4.395h-60c-3.984 0-7.793 1.582-10.605 4.395l-30 30c-2.813 2.812-4.395 6.621-4.395 10.605v150c0 3.984 1.582 7.793 4.395 10.605l30 30c2.812 2.813 6.621 4.395 10.605 4.395h60c3.984 0 7.793-1.582 10.605-4.395l30-30c2.813-2.812 4.395-6.621 4.395-10.605v-150c0-3.984-1.582-7.793-4.395-10.605zm362 0c-2.812-2.813-6.621-4.395-10.605-4.395h-60c-3.984 0-7.793 1.582-10.605 4.395l-30 30c-2.813 2.812-4.395 6.621-4.395 10.605v150c0 3.984 1.582 7.793 4.395 10.605l30 30c2.812 2.813 6.621 4.395 10.605 4.395h60c3.984 0 7.793-1.582 10.605-4.395l30-30c2.813-2.812 4.395-6.621 4.395-10.605v-150c0-3.984-1.582-7.793-4.395-10.605z" fill="url(#SVGID_2_)"/></g></g></g></svg>